<svg width="19" height="17" viewBox="0 0 19 17" fill="none" xmlns="http://www.w3.org/2000/svg">
<path d="M7.16229 9C7.0548 9 6.94802 9.01733 6.84606 9.05132L4.68377 9.77208C4.27543 9.90819 4 10.2903 4 10.7208L4.00001 14.0018C4.00001 14.5541 4.44772 15.0018 5.00001 15.0018H5.76413C5.91925 15.0018 6.07225 15.0379 6.21102 15.1072L9.59475 16.7976C9.85232 16.9262 10.151 16.9384 10.4172 16.8286C11.7878 16.2635 16.1946 14.4289 18.4741 13.275C18.801 13.1095 19 12.772 19 12.4056V12.3257C19 11.6614 18.3641 11.1817 17.7253 11.3642L12.2975 12.915C12.1037 12.9704 11.8977 12.9659 11.7065 12.9022L9.5549 12.185C9.29997 12.1 9.22358 11.7764 9.4136 11.5864V11.5864C9.46965 11.5304 9.54256 11.4943 9.62112 11.4837L12.1331 11.1465C12.6295 11.0799 13 10.6562 13 10.1554L13 10C13 9.44771 12.5523 9 12 9H7.16229Z" fill="#218CEF"/>
<circle cx="9.00002" cy="2" r="2" fill="#218CEF"/>
<circle cx="15.5" cy="5.5" r="2.5" fill="#218CEF"/>
<rect y="10" width="3" height="5" rx="1" fill="#218CEF"/>
</svg>
