<svg width="20" height="20" viewBox="0 0 20 20" fill="none" xmlns="http://www.w3.org/2000/svg">
<path fill-rule="evenodd" clip-rule="evenodd" d="M11.9355 2.82258L11.6129 0.322581C11.6129 0.0806452 11.4516 0 11.2903 0H8.70968C8.54839 0 8.3871 0.0806452 8.3871 0.241935L8.06452 2.82258C8.06452 2.90323 8.06452 2.98387 7.98387 2.98387C7.41935 3.14516 6.93548 3.3871 6.53226 3.62903C6.45161 3.62903 6.37097 3.62903 6.29032 3.54839L4.27419 2.01613C4.1129 1.85484 3.95161 1.93548 3.87097 2.01613L2.01613 3.87097C1.93548 3.95161 1.85484 4.1129 2.01613 4.27419L3.54839 6.29032C3.62903 6.37097 3.62903 6.45161 3.62903 6.53226C3.30645 6.93548 3.14516 7.41935 2.98387 7.98387C2.98387 8.06452 2.90323 8.06452 2.82258 8.06452L0.241935 8.3871C0.0806452 8.3871 0 8.54839 0 8.70968V11.2903C0 11.4516 0.0806452 11.6129 0.322581 11.6129L2.82258 11.9355C2.90323 11.9355 2.98387 12.0161 2.98387 12.0968C3.14516 12.5806 3.3871 13.0645 3.62903 13.4677C3.62903 13.5484 3.62903 13.629 3.54839 13.7097L2.01613 15.7258C1.85484 15.8871 1.93548 16.0484 2.01613 16.2097L3.87097 17.9839C3.95161 18.1452 4.1129 18.1452 4.27419 18.0645L6.29032 16.4516C6.37097 16.371 6.45161 16.371 6.53226 16.4516C6.93548 16.6935 7.41935 16.8548 7.98387 17.0161C8.06452 17.0161 8.06452 17.0968 8.06452 17.1774L8.3871 19.7581C8.3871 19.9194 8.54839 20 8.70968 20H11.2903C11.4516 20 11.6129 19.9194 11.6129 19.7581L11.9355 17.1774C11.9355 17.0968 12.0161 17.0161 12.0968 17.0161C12.5806 16.8548 13.0645 16.6935 13.4677 16.4516C13.5484 16.371 13.629 16.371 13.7097 16.4516L15.7258 18.0645C15.8871 18.1452 16.0484 18.1452 16.2097 17.9839L17.9839 16.2097C18.1452 16.0484 18.1452 15.8871 18.0645 15.7258L16.4516 13.7097C16.371 13.629 16.371 13.5484 16.4516 13.4677C16.6935 13.0645 16.8548 12.5806 17.0161 12.0968C17.0161 12.0161 17.0968 11.9355 17.1774 11.9355L19.7581 11.6129C19.9194 11.6129 20 11.4516 20 11.2903V8.70968C20 8.54839 19.9194 8.3871 19.7581 8.3871L17.1774 8.06452C17.0968 8.06452 17.0161 8.06452 17.0161 7.98387C16.8548 7.41935 16.6935 6.93548 16.4516 6.53226C16.371 6.45161 16.371 6.37097 16.4516 6.29032L18.0645 4.27419C18.1452 4.1129 18.1452 3.95161 17.9839 3.87097L16.2097 2.01613C16.0484 1.93548 15.8871 1.85484 15.7258 2.01613L13.7097 3.54839C13.629 3.62903 13.5484 3.62903 13.4677 3.62903C13.0645 3.3871 12.5806 3.14516 12.0968 2.98387C12.0161 2.98387 11.9355 2.90323 11.9355 2.82258ZM10 5.96774C12.2581 5.96774 14.0323 7.82258 14.0323 10C14.0323 12.2581 12.2581 14.0323 10 14.0323C7.82258 14.0323 5.96774 12.2581 5.96774 10C5.96774 7.82258 7.82258 5.96774 10 5.96774Z" fill="#333333"/>
<path fill-rule="evenodd" clip-rule="evenodd" d="M11.9355 2.82258L11.6129 0.322581C11.6129 0.0806452 11.4516 0 11.2903 0H8.70968C8.54839 0 8.3871 0.0806452 8.3871 0.241935L8.06452 2.82258C8.06452 2.90323 8.06452 2.98387 7.98387 2.98387C7.41935 3.14516 6.93548 3.3871 6.53226 3.62903C6.45161 3.62903 6.37097 3.62903 6.29032 3.54839L4.27419 2.01613C4.1129 1.85484 3.95161 1.93548 3.87097 2.01613L2.01613 3.87097C1.93548 3.95161 1.85484 4.1129 2.01613 4.27419L3.54839 6.29032C3.62903 6.37097 3.62903 6.45161 3.62903 6.53226C3.30645 6.93548 3.14516 7.41935 2.98387 7.98387C2.98387 8.06452 2.90323 8.06452 2.82258 8.06452L0.241935 8.3871C0.0806452 8.3871 0 8.54839 0 8.70968V11.2903C0 11.4516 0.0806452 11.6129 0.322581 11.6129L2.82258 11.9355C2.90323 11.9355 2.98387 12.0161 2.98387 12.0968C3.14516 12.5806 3.3871 13.0645 3.62903 13.4677C3.62903 13.5484 3.62903 13.629 3.54839 13.7097L2.01613 15.7258C1.85484 15.8871 1.93548 16.0484 2.01613 16.2097L3.87097 17.9839C3.95161 18.1452 4.1129 18.1452 4.27419 18.0645L6.29032 16.4516C6.37097 16.371 6.45161 16.371 6.53226 16.4516C6.93548 16.6935 7.41935 16.8548 7.98387 17.0161C8.06452 17.0161 8.06452 17.0968 8.06452 17.1774L8.3871 19.7581C8.3871 19.9194 8.54839 20 8.70968 20H11.2903C11.4516 20 11.6129 19.9194 11.6129 19.7581L11.9355 17.1774C11.9355 17.0968 12.0161 17.0161 12.0968 17.0161C12.5806 16.8548 13.0645 16.6935 13.4677 16.4516C13.5484 16.371 13.629 16.371 13.7097 16.4516L15.7258 18.0645C15.8871 18.1452 16.0484 18.1452 16.2097 17.9839L17.9839 16.2097C18.1452 16.0484 18.1452 15.8871 18.0645 15.7258L16.4516 13.7097C16.371 13.629 16.371 13.5484 16.4516 13.4677C16.6935 13.0645 16.8548 12.5806 17.0161 12.0968C17.0161 12.0161 17.0968 11.9355 17.1774 11.9355L19.7581 11.6129C19.9194 11.6129 20 11.4516 20 11.2903V8.70968C20 8.54839 19.9194 8.3871 19.7581 8.3871L17.1774 8.06452C17.0968 8.06452 17.0161 8.06452 17.0161 7.98387C16.8548 7.41935 16.6935 6.93548 16.4516 6.53226C16.371 6.45161 16.371 6.37097 16.4516 6.29032L18.0645 4.27419C18.1452 4.1129 18.1452 3.95161 17.9839 3.87097L16.2097 2.01613C16.0484 1.93548 15.8871 1.85484 15.7258 2.01613L13.7097 3.54839C13.629 3.62903 13.5484 3.62903 13.4677 3.62903C13.0645 3.3871 12.5806 3.14516 12.0968 2.98387C12.0161 2.98387 11.9355 2.90323 11.9355 2.82258ZM10 5.96774C12.2581 5.96774 14.0323 7.82258 14.0323 10C14.0323 12.2581 12.2581 14.0323 10 14.0323C7.82258 14.0323 5.96774 12.2581 5.96774 10C5.96774 7.82258 7.82258 5.96774 10 5.96774Z" fill="#131037"/>
</svg>
